<svg
    xmlns="http://www.w3.org/2000/svg"
    xmlns:xlink="http://www.w3.org/1999/xlink"
    width="14px"
    height="14px"
    viewBox="0 0 14 14"
    version="1.1"
>
    <g id="surface1">
    <path
        style=" stroke:none;fill-rule:nonzero;fill:rgb(0%,0%,0%);fill-opacity:1;"
        d="M 7 1.3125 C 3.859375 1.3125 1.3125 3.859375 1.3125 7 C 1.3125 9.6875 3.175781 11.933594 5.675781 12.53125 C 5.546875 12.5 5.417969 12.464844 5.292969 12.425781 L 5.292969 11.125 C 5.292969 11.125 5.082031 11.195312 4.796875 11.195312 C 4 11.195312 3.671875 10.484375 3.585938 10.128906 C 3.539062 9.910156 3.40625 9.703125 3.265625 9.578125 C 3.097656 9.429688 3.019531 9.429688 3.019531 9.378906 C 3.015625 9.269531 3.164062 9.273438 3.230469 9.273438 C 3.585938 9.273438 3.855469 9.652344 3.980469 9.847656 C 4.292969 10.332031 4.625 10.414062 4.796875 10.414062 C 5.007812 10.414062 5.195312 10.378906 5.320312 10.320312 C 5.378906 9.90625 5.5625 9.539062 5.863281 9.273438 C 4.527344 9.007812 3.585938 8.242188 3.585938 7 C 3.585938 6.359375 3.84375 5.769531 4.273438 5.296875 C 4.230469 5.171875 4.15625 4.921875 4.15625 4.511719 C 4.15625 4.242188 4.175781 3.910156 4.296875 3.585938 C 4.296875 3.585938 5.109375 3.59375 5.875 4.316406 C 6.226562 4.214844 6.605469 4.15625 7 4.15625 C 7.394531 4.15625 7.773438 4.214844 8.125 4.316406 C 8.890625 3.59375 9.703125 3.585938 9.703125 3.585938 C 9.824219 3.910156 9.84375 4.242188 9.84375 4.511719 C 9.84375 4.953125 9.785156 5.210938 9.75 5.320312 C 10.164062 5.792969 10.414062 6.371094 10.414062 7 C 10.414062 8.242188 9.472656 9.007812 8.136719 9.273438 C 8.492188 9.585938 8.707031 10.042969 8.707031 10.554688 L 8.707031 12.425781 C 8.582031 12.464844 8.453125 12.5 8.324219 12.53125 C 10.824219 11.933594 12.6875 9.6875 12.6875 7 C 12.6875 3.859375 10.140625 1.3125 7 1.3125 Z M 7.398438 12.671875 C 7.265625 12.679688 7.132812 12.6875 7 12.6875 C 7.132812 12.6875 7.265625 12.679688 7.398438 12.671875 Z M 8.265625 12.542969 C 8.011719 12.601562 7.75 12.644531 7.484375 12.664062 C 7.75 12.644531 8.011719 12.601562 8.265625 12.542969 Z M 7 12.6875 C 6.867188 12.6875 6.734375 12.679688 6.601562 12.671875 C 6.734375 12.679688 6.867188 12.6875 7 12.6875 Z M 6.515625 12.664062 C 6.25 12.644531 5.988281 12.601562 5.734375 12.542969 C 5.988281 12.601562 6.25 12.644531 6.515625 12.664062 Z M 6.515625 12.664062 "
    ></path>
    </g>
</svg>