<svg
    xmlns="http://www.w3.org/2000/svg"
    xmlns:xlink="http://www.w3.org/1999/xlink"
    width="14px"
    height="14px"
    viewBox="0 0 14 14"
    version="1.1"
>
    <g id="surface1">
    <path
        style=" stroke:none;fill-rule:nonzero;fill:rgb(0%,0%,0%);fill-opacity:1;"
        d="M 2.238281 0.84375 C 1.269531 0.84375 0.5625 1.425781 0.5625 2.226562 C 0.5625 3.03125 1.285156 3.636719 2.238281 3.636719 C 3.210938 3.636719 3.917969 3.042969 3.917969 2.210938 C 3.871094 1.40625 3.179688 0.84375 2.238281 0.84375 Z M 0.839844 4.199219 C 0.6875 4.199219 0.558594 4.324219 0.558594 4.480469 L 0.558594 12.601562 C 0.558594 12.753906 0.6875 12.878906 0.839844 12.878906 L 3.640625 12.878906 C 3.792969 12.878906 3.921875 12.753906 3.921875 12.601562 L 3.921875 4.480469 C 3.921875 4.324219 3.792969 4.199219 3.640625 4.199219 Z M 5.039062 4.199219 C 4.886719 4.199219 4.761719 4.324219 4.761719 4.480469 L 4.761719 12.601562 C 4.761719 12.753906 4.886719 12.878906 5.039062 12.878906 L 7.558594 12.878906 C 7.714844 12.878906 7.839844 12.753906 7.839844 12.601562 L 7.839844 8.261719 C 7.839844 7.597656 8.351562 7.054688 9 7.003906 C 9.03125 7 9.066406 7 9.101562 7 C 9.132812 7 9.167969 7 9.199219 7.003906 C 9.851562 7.054688 10.359375 7.597656 10.359375 8.261719 L 10.359375 12.601562 C 10.359375 12.753906 10.484375 12.878906 10.640625 12.878906 L 13.160156 12.878906 C 13.3125 12.878906 13.441406 12.753906 13.441406 12.601562 L 13.441406 7.839844 C 13.441406 6.027344 12.46875 4.199219 10.300781 4.199219 C 9.316406 4.199219 8.570312 4.582031 8.121094 4.898438 L 8.121094 4.480469 C 8.121094 4.324219 7.992188 4.199219 7.839844 4.199219 Z M 5.039062 4.199219 "
    ></path>
    </g>
</svg>